<?xml version="1.0" encoding="utf-8"?>
<svg viewBox="0 0 960 960" width="960" height="960" xmlns="http://www.w3.org/2000/svg">
  <path fill="#242022" opacity="1.000000" stroke="none" d="M 378.743 589.343 C 375.018 588.617 371.666 587.799 368.277 587.18 C 317.317 577.879 277.015 535.652 269.972 484.143 C 260.831 417.292 305.374 356.429 371.975 345.781 C 407.699 340.07 440.001 349.095 468.389 371.673 C 471.766 374.359 471.89 375.468 469.2 378.8 C 444.871 408.935 420.513 439.047 396.195 469.192 C 394.108 471.778 391.756 472.965 388.664 471.206 C 385.951 469.662 385.512 466.857 387.326 463.292 C 400.24 437.907 413.171 412.53 426.092 387.148 C 426.775 385.806 427.424 384.447 428.607 382.042 C 420.239 379.92 412.351 377.126 404.232 375.994 C 357.448 369.467 314.492 398.173 302.397 443.644 C 286.949 501.719 331.861 559.351 391.933 558.54 C 434.054 557.97 468.53 531.245 480.438 489.055 C 485.053 472.706 488.248 455.951 491.92 439.344 C 502.763 390.302 544.958 351.688 594.831 345.367 C 629.496 340.973 660.565 349.676 688.042 371.233 C 692.233 374.521 692.265 374.982 688.99 379.051 C 683.774 385.528 678.542 391.992 673.327 398.449 C 668.273 394.891 663.557 391.123 658.433 388.032 C 602.529 354.308 529.84 388.921 520.621 453.582 C 514.08 499.457 542.463 543.169 586.627 555.234 C 631.81 567.578 678.528 544.758 696.323 501.61 C 702.854 485.775 706.11 469.031 709.248 452.329 C 713.457 429.928 720.526 408.762 735.298 391.07 C 768.55 351.246 811.175 335.63 861.409 348.273 C 910.79 360.702 941.544 393.809 951.645 443.88 C 965.436 512.245 918.509 577.689 849.626 587.979 C 847.883 588.239 846.143 588.513 844.273 589.062 C 835.798 589.343 827.452 589.343 818.628 589.064 C 817.657 588.689 817.168 588.57 816.672 588.498 C 775.054 582.461 743.979 561.079 723.398 524.419 C 722.814 523.379 722.22 522.344 721.645 521.332 C 721.245 521.526 721.095 521.548 721.045 521.631 C 720.719 522.167 720.406 522.711 720.107 523.262 C 701.049 558.347 671.949 579.777 632.769 587.507 C 629.763 588.1 626.764 588.73 623.762 589.343 C 615.416 589.343 607.069 589.343 598.25 589.061 C 597.287 588.679 596.8 588.551 596.305 588.482 C 561.346 583.596 533.228 567.088 512.25 538.684 C 508.196 533.195 504.87 527.168 501.12 521.251 C 500.612 522.132 500.1 522.98 499.625 523.848 C 481.318 557.255 453.627 578.263 416.472 586.732 C 412.135 587.721 407.745 588.478 403.379 589.343 C 395.285 589.343 387.191 589.343 378.743 589.343 M 885.101 541.332 C 926.264 511.46 935.64 454.468 906.162 413.306 C 876.786 372.287 819.406 362.637 778.507 391.838 C 737.018 421.46 727.353 478.496 756.788 520.009 C 786.044 561.27 843.043 570.914 885.101 541.332 Z" transform="matrix(0.9999999999999999, 0, 0, 0.9999999999999999, -2.2737367544323206e-13, 0)"/>
  <path fill="#242021" opacity="1.000000" stroke="none" d="M 8.054 454.136 C 8.768 450.541 9.575 447.318 10.183 444.058 C 20.372 389.349 66.395 348.363 122.006 344.582 C 152.872 342.483 180.57 351.045 205.21 369.651 C 210.853 373.913 210.963 375.34 206.468 380.89 C 201.786 386.67 197.119 392.463 192.339 398.382 C 188.751 395.703 185.348 392.939 181.729 390.495 C 124.99 352.167 47.089 388.032 39.237 456.069 C 33.598 504.934 68.164 550.736 115.813 557.537 C 166.701 564.8 212.308 532.32 220.945 482.486 C 221.951 476.68 222.327 470.699 222.337 464.797 C 222.438 407.75 222.425 350.703 222.346 293.656 C 222.34 289.258 223.479 285.642 226.311 282.225 C 233.796 273.192 241.006 263.932 248.419 254.838 C 249.276 253.788 250.723 253.219 251.897 252.427 C 252.276 253.801 252.987 255.174 252.988 256.548 C 253.041 326.469 253.337 396.391 252.938 466.309 C 252.6 525.665 213.358 573.992 156.147 586.636 C 151.85 587.586 147.45 588.068 142.978 589.055 C 134.512 589.343 126.166 589.343 117.351 589.063 C 115.401 588.513 113.925 588.201 112.435 587.981 C 60.956 580.388 19.575 540.549 10.187 489.575 C 9.612 486.454 8.771 483.382 8.054 480.287 C 8.054 471.689 8.054 463.09 8.054 454.136 Z" transform="matrix(0.9999999999999999, 0, 0, 0.9999999999999999, -2.2737367544323206e-13, 0)"/>
</svg>